<?xml version="1.0" standalone="no"?>
<!DOCTYPE svg PUBLIC "-//W3C//DTD SVG 1.1//EN" "http://www.w3.org/Graphics/SVG/1.1/DTD/svg11.dtd" >
<svg xmlns="http://www.w3.org/2000/svg">
<metadata>Generated by IcoMoon</metadata>
<defs>
<font id="social-icons" horiz-adv-x="1024">
<font-face units-per-em="1024" ascent="960" descent="-64" />
<missing-glyph horiz-adv-x="1024" />
<glyph unicode="&#x20;" d="" horiz-adv-x="512" />
<glyph unicode="&#xe600;" d="M512 925.248c263.153 0 477.248-214.095 477.248-477.248s-214.095-477.248-477.248-477.248-477.248 214.095-477.248 477.248c0 263.153 214.095 477.248 477.248 477.248zM512 960c-282.765 0-512-229.224-512-512 0-282.765 229.235-512 512-512s512 229.235 512 512c0 282.776-229.235 512-512 512v0zM617.715 532.019h-74.786v49.047c0 18.419 12.198 22.716 20.793 22.716 8.584 0 52.777 0 52.777 0v80.972l-72.678 0.29c-80.682 0-99.043-60.399-99.043-99.043v-53.981h-46.66v-83.439h46.66c0-107.094 0-236.116 0-236.116h98.163c0 0 0 130.308 0 236.116h66.214l8.561 83.439z" />
<glyph unicode="&#xe601;" d="M512 960c-282.765 0-512-229.235-512-512s229.235-512 512-512 512 229.235 512 512c0 282.765-229.235 512-512 512zM609.143 448.579h-66.214c0-105.808 0-236.116 0-236.116h-98.163c0 0 0 129.022 0 236.116h-46.66v83.439h46.66v53.981c0 38.656 18.361 99.043 99.043 99.043l72.678-0.29v-80.972c0 0-44.193 0-52.777 0-8.595 0-20.793-4.298-20.793-22.716v-49.047h74.786l-8.561-83.439z" />
<glyph unicode="&#xe602;" d="M512 925.248c263.153 0 477.248-214.095 477.248-477.248s-214.095-477.248-477.248-477.248c-263.153 0-477.248 214.095-477.248 477.248 0 263.153 214.095 477.248 477.248 477.248zM512 960c-282.776 0-512-229.224-512-512 0-282.765 229.224-512 512-512 282.765 0 512 229.235 512 512 0 282.776-229.235 512-512 512v0zM782.196 565.334c-59.866-1.738-132.15 45.224-160.16 62.913-2.595 1.633-5.248 3.151-7.935 4.518-2.931 1.633-5.966 3.139-8.989 4.645v-172.81h-0.093c0.104-15.465-4.495-31.786-14.156-47.436l-0.846-1.378c-27.987-45.247-86.88-71.624-142.112-52.974-53.634 18.117-67.963 70.071-39.559 116.002l0.857 1.39c27.952 45.224 86.845 71.624 142.077 52.962 4.263-1.436 8.19-3.139 11.92-5.004v124.979c-19.762 5.352-40.741 8.41-62.843 8.41-127.829 0-222.748-95.672-222.748-213.551v-1.541c0-117.879 94.143-212.021 221.219-212.021 127.818 0 222.748 95.672 222.748 213.551v1.541c0 9.186-0.637 18.198-1.749 27.060 66.585 17.364 94.039 86.266 62.368 88.745z" />
<glyph unicode="&#xe603;" d="M512 960c-282.776 0-512-229.235-512-512s229.224-512 512-512c282.765 0 512 229.235 512 512 0 282.765-229.235 512-512 512zM719.828 476.601c1.112-8.862 1.749-17.886 1.749-27.060v-1.541c0-117.879-94.931-213.551-222.748-213.551-127.065 0-221.219 94.143-221.219 212.021v1.541c0 117.879 94.907 213.551 222.748 213.551 22.102 0 43.081-3.058 62.843-8.41v-124.979c-3.73 1.865-7.657 3.579-11.92 5.004-55.244 18.662-114.125-7.738-142.077-52.962l-0.857-1.39c-28.404-45.942-14.075-97.885 39.559-116.002 55.232-18.65 114.114 7.727 142.112 52.974l0.846 1.378c9.673 15.65 14.271 31.96 14.156 47.436h0.093v172.798c3.023-1.506 6.058-3.012 8.989-4.645 2.676-1.367 5.329-2.884 7.935-4.518 28.010-17.689 100.294-64.662 160.16-62.913 31.671-2.479 4.217-71.38-62.368-88.733z" />
<glyph unicode="&#xe604;" d="M512 925.248c263.153 0 477.248-214.095 477.248-477.248s-214.095-477.248-477.248-477.248c-263.153 0-477.248 214.095-477.248 477.248 0 263.153 214.095 477.248 477.248 477.248zM512 960c-282.776 0-512-229.224-512-512 0-282.765 229.224-512 512-512s512 229.235 512 512c0 282.776-229.235 512-512 512v0zM512 693.603c-135.637 0-245.603-109.955-245.603-245.603s109.955-245.592 245.603-245.592c135.648 0 245.615 109.955 245.615 245.603s-109.967 245.592-245.615 245.592zM611.634 332.102c-3.973 0-6.684 1.378-10.402 3.649-35.598 21.523-79.976 32.841-127.088 32.841-26.284 0-52.73-3.359-77.474-8.503-4.020-0.88-9.082-2.444-12.105-2.444-9.325 0-15.546 7.414-15.546 15.441 0 10.321 5.954 15.453 13.356 16.866 30.338 6.916 60.549 10.854 91.93 10.854 53.738 0 101.638-12.325 142.854-37.034 6.14-3.568 9.731-7.228 9.731-16.31 0.023-8.85-7.182-15.36-15.256-15.36zM638.404 397.123c-5.329 0-8.688 2.143-12.302 4.251-39.953 23.712-95.325 39.455-155.955 39.455-31.103 0-57.955-4.356-80.161-10.263-4.784-1.321-7.472-2.734-11.955-2.734-10.565 0-19.183 8.618-19.183 19.264 0 10.437 5.062 17.631 15.279 20.515 27.605 7.576 55.8 13.426 96.842 13.426 64.291 0 126.485-16.009 175.37-45.27 8.19-4.703 11.213-10.657 11.213-19.415-0.012-10.646-8.479-19.229-19.148-19.229zM668.87 472.72c-5.004 0-7.97 1.216-12.661 3.776-44.448 26.655-113.442 41.343-180.166 41.343-33.304 0-67.129-3.383-98.116-11.792-3.568-0.892-8.074-2.687-12.592-2.687-13.101 0-23.156 10.368-23.156 23.469 0 13.345 8.271 20.84 17.202 23.481 35.007 10.31 74.091 15.117 116.57 15.117 72.122 0 147.997-14.839 203.426-47.39 7.472-4.228 12.661-10.611 12.661-22.299 0-13.403-10.762-23.017-23.168-23.017z" />
<glyph unicode="&#xe605;" d="M646.328 435.756c-48.896 29.261-111.090 45.27-175.381 45.27-41.042 0-69.226-5.85-96.842-13.426-10.217-2.884-15.279-10.078-15.279-20.515 0-10.646 8.618-19.253 19.183-19.253 4.483 0 7.159 1.413 11.955 2.734 22.218 5.919 49.058 10.263 80.161 10.263 60.631 0 116.002-15.754 155.967-39.455 3.614-2.108 6.974-4.251 12.302-4.251 10.68 0 19.137 8.595 19.137 19.229 0.012 8.734-3.012 14.688-11.202 19.403zM679.388 518.025c-55.429 32.551-131.304 47.39-203.426 47.39-42.478 0-81.563-4.807-116.57-15.117-8.931-2.641-17.191-10.124-17.191-23.481 0-13.101 10.055-23.469 23.156-23.469 4.518 0 9.024 1.796 12.592 2.687 30.987 8.41 64.812 11.792 98.116 11.792 66.724 0 135.706-14.677 180.166-41.332 4.692-2.56 7.657-3.776 12.661-3.776 12.406 0 23.168 9.615 23.168 23.006-0.023 11.688-5.213 18.071-12.673 22.299zM512 960c-282.765 0-512-229.235-512-512s229.235-512 512-512c282.765 0 512 229.235 512 512 0 282.765-229.235 512-512 512zM511.988 202.397c-135.637 0-245.603 109.955-245.603 245.603s109.967 245.603 245.603 245.603c135.648 0 245.615-109.955 245.615-245.603 0-135.637-109.955-245.603-245.615-245.603zM617.182 363.785c-41.216 24.709-89.116 37.034-142.854 37.034-31.381 0-61.592-3.939-91.93-10.854-7.414-1.413-13.356-6.545-13.356-16.866 0-8.028 6.221-15.441 15.546-15.441 3.023 0 8.086 1.564 12.105 2.444 24.732 5.143 51.19 8.503 77.474 8.503 47.1 0 91.49-11.318 127.088-32.841 3.718-2.27 6.418-3.649 10.402-3.649 8.074 0 15.268 6.51 15.268 15.372-0.012 9.070-3.614 12.719-9.742 16.299z" />
<glyph unicode="&#xe606;" d="M512 925.248c263.153 0 477.248-214.095 477.248-477.248s-214.095-477.248-477.248-477.248c-263.153 0-477.248 214.095-477.248 477.248 0 263.153 214.095 477.248 477.248 477.248zM512 960c-282.776 0-512-229.224-512-512 0-282.765 229.224-512 512-512 282.765 0 512 229.235 512 512 0 282.776-229.235 512-512 512v0zM728.157 577.219c-15.21-7.356-31.381-12.105-48.525-14.306 17.469 11.248 30.871 28.948 37.219 50.159-16.333-10.356-34.416-17.758-53.68-22.079-15.337 17.723-37.335 28.786-61.522 28.786-46.591 0-84.343-40.613-84.343-90.83 0-7.055 0.73-14.028 2.12-20.585-69.967 3.614-132.208 39.907-173.841 94.745-7.228-13.379-11.364-28.948-11.364-45.641 0-31.427 14.862-59.391 37.544-75.446-13.854 0.568-26.863 4.425-38.216 11.294 0-0.371 0-0.846 0-1.239 0-43.915 29.064-80.567 67.65-89.046-7.066-2.062-14.538-3-22.288-3-5.421 0-10.565 0.371-15.777 1.622 10.692-36.211 41.864-62.507 78.771-63.052-28.867-24.477-65.229-38.853-104.754-38.853-6.823 0-13.565 0.405-20.133 1.263 37.312-25.879 81.563-40.961 129.312-40.961 155.133 0 240.008 138.417 240.008 258.404 0 3.834-0.093 7.727-0.278 11.619 16.461 12.951 30.79 28.972 42.096 47.147z" />
<glyph unicode="&#xe607;" d="M512 960c-282.776 0-512-229.235-512-512s229.224-512 512-512c282.765 0 512 229.235 512 512 0 282.765-229.235 512-512 512zM686.061 530.049c0.185-3.892 0.278-7.773 0.278-11.619 0-119.987-84.887-258.404-240.008-258.404-47.738 0-92 15.082-129.312 40.961 6.58-0.869 13.31-1.263 20.133-1.263 39.525 0 75.887 14.376 104.754 38.853-36.895 0.544-68.079 26.84-78.771 63.052 5.213-1.239 10.356-1.622 15.777-1.622 7.738 0 15.221 0.938 22.288 3-38.586 8.479-67.65 45.131-67.65 89.046 0 0.394 0 0.869 0 1.239 11.352-6.869 24.361-10.727 38.216-11.294-22.67 16.044-37.544 44.019-37.544 75.446 0 16.704 4.135 32.273 11.364 45.641 41.633-54.827 103.873-91.131 173.841-94.745-1.39 6.557-2.12 13.542-2.12 20.585 0 50.217 37.752 90.83 84.343 90.83 24.187 0 46.197-11.051 61.522-28.786 19.264 4.332 37.335 11.735 53.68 22.079-6.348-21.222-19.751-38.922-37.219-50.159 17.144 2.201 33.316 6.95 48.525 14.306-11.306-18.152-25.635-34.173-42.096-47.147z" />
<glyph unicode="&#xe608;" d="M512 925.248c263.153 0 477.248-214.095 477.248-477.248s-214.095-477.248-477.248-477.248c-263.153 0-477.248 214.095-477.248 477.248 0 263.153 214.095 477.248 477.248 477.248zM512 960c-282.765 0-512-229.224-512-512 0-282.765 229.235-512 512-512 282.765 0 512 229.235 512 512 0 282.776-229.235 512-512 512v0zM749.425 567.952c-0.278 1.877-0.66 3.718-1.17 5.502-0.22 0.834-0.475 1.691-0.753 2.514-6.267 18.604-23.84 32.030-44.564 32.041h3.232c0 0-83.324 12.569-194.171 13.090-110.847-0.521-194.171-13.090-194.171-13.090h3.232c-20.735-0.012-38.285-13.437-44.575-32.041-0.266-0.822-0.521-1.68-0.765-2.514-0.487-1.784-0.88-3.626-1.147-5.502-3.023-21.604-8.016-64.754-8.468-116.454 0.452-51.722 5.444-94.826 8.468-116.465 0.266-1.877 0.66-3.707 1.147-5.491 0.243-0.869 0.498-1.68 0.765-2.525 6.279-18.615 23.84-32.041 44.575-32.041h-3.232c0 0 83.335-12.58 194.171-13.090 110.847 0.521 194.171 13.090 194.171 13.090h-3.232c20.724 0 38.297 13.426 44.564 32.041 0.278 0.846 0.533 1.657 0.753 2.525 0.51 1.784 0.892 3.614 1.17 5.491 3.012 21.639 8.005 64.743 8.456 116.465-0.44 51.699-5.444 94.838-8.456 116.454zM584.828 440.969l-99.286-72.122c-2.074-1.518-4.553-2.294-7.020-2.294-1.842 0-3.718 0.452-5.421 1.297-3.996 2.050-6.522 6.174-6.522 10.669v144.22c0 4.506 2.525 8.618 6.522 10.68 3.985 2.027 8.804 1.645 12.441-0.996l99.286-72.099c3.105-2.259 4.923-5.85 4.923-9.673 0-3.846-1.807-7.425-4.923-9.684z" />
<glyph unicode="&#xe609;" d="M584.828 460.314l-99.298 72.099c-3.637 2.63-8.456 3.023-12.441 0.996-3.996-2.050-6.522-6.163-6.522-10.68v-144.209c0-4.495 2.525-8.618 6.522-10.669 1.714-0.846 3.579-1.297 5.421-1.297 2.467 0 4.946 0.776 7.020 2.294l99.298 72.122c3.116 2.259 4.923 5.827 4.923 9.673 0 3.823-1.819 7.425-4.923 9.673zM512 960c-282.765 0-512-229.235-512-512s229.235-512 512-512c282.765 0 512 229.235 512 512 0 282.765-229.235 512-512 512zM749.425 335.033c-0.278-1.877-0.66-3.707-1.17-5.491-0.22-0.869-0.475-1.68-0.753-2.525-6.267-18.615-23.84-32.041-44.564-32.041h3.232c0 0-83.324-12.58-194.171-13.090-110.835 0.521-194.171 13.090-194.171 13.090h3.232c-20.735 0-38.285 13.426-44.575 32.041-0.266 0.846-0.521 1.657-0.765 2.525-0.487 1.784-0.88 3.614-1.147 5.491-3.023 21.639-8.016 64.743-8.468 116.465 0.452 51.699 5.444 94.838 8.468 116.454 0.266 1.877 0.66 3.718 1.147 5.502 0.243 0.834 0.498 1.691 0.765 2.514 6.279 18.604 23.84 32.030 44.575 32.041h-3.232c0 0 83.335 12.569 194.171 13.090 110.847-0.51 194.171-13.090 194.171-13.090h-3.232c20.724-0.012 38.297-13.437 44.564-32.041 0.278-0.822 0.533-1.68 0.753-2.514 0.51-1.784 0.892-3.626 1.17-5.502 3.012-21.604 8.005-64.754 8.456-116.454-0.44-51.711-5.444-94.815-8.456-116.465z" />
<glyph unicode="" d="M584.828 460.314l-99.298 72.099c-3.637 2.63-8.456 3.023-12.441 0.996-3.996-2.050-6.522-6.163-6.522-10.68v-144.209c0-4.495 2.525-8.618 6.522-10.669 1.714-0.846 3.579-1.297 5.421-1.297 2.467 0 4.946 0.776 7.020 2.294l99.298 72.122c3.116 2.259 4.923 5.827 4.923 9.673 0 3.823-1.819 7.425-4.923 9.673zM512 960c-282.765 0-512-229.235-512-512s229.235-512 512-512c282.765 0 512 229.235 512 512 0 282.765-229.235 512-512 512zM749.425 335.033c-0.278-1.877-0.66-3.707-1.17-5.491-0.22-0.869-0.475-1.68-0.753-2.525-6.267-18.615-23.84-32.041-44.564-32.041h3.232c0 0-83.324-12.58-194.171-13.090-110.835 0.521-194.171 13.090-194.171 13.090h3.232c-20.735 0-38.285 13.426-44.575 32.041-0.266 0.846-0.521 1.657-0.765 2.525-0.487 1.784-0.88 3.614-1.147 5.491-3.023 21.639-8.016 64.743-8.468 116.465 0.452 51.699 5.444 94.838 8.468 116.454 0.266 1.877 0.66 3.718 1.147 5.502 0.243 0.834 0.498 1.691 0.765 2.514 6.279 18.604 23.84 32.030 44.575 32.041h-3.232c0 0 83.335 12.569 194.171 13.090 110.847-0.51 194.171-13.090 194.171-13.090h-3.232c20.724-0.012 38.297-13.437 44.564-32.041 0.278-0.822 0.533-1.68 0.753-2.514 0.51-1.784 0.892-3.626 1.17-5.502 3.012-21.604 8.005-64.754 8.456-116.454-0.44-51.711-5.444-94.815-8.456-116.465z" />
<glyph unicode="youtube" d="M512 925.248c263.153 0 477.248-214.095 477.248-477.248s-214.095-477.248-477.248-477.248c-263.153 0-477.248 214.095-477.248 477.248 0 263.153 214.095 477.248 477.248 477.248zM512 960c-282.765 0-512-229.224-512-512 0-282.765 229.235-512 512-512 282.765 0 512 229.235 512 512 0 282.776-229.235 512-512 512v0zM749.425 567.952c-0.278 1.877-0.66 3.718-1.17 5.502-0.22 0.834-0.475 1.691-0.753 2.514-6.267 18.604-23.84 32.030-44.564 32.041h3.232c0 0-83.324 12.569-194.171 13.090-110.847-0.521-194.171-13.090-194.171-13.090h3.232c-20.735-0.012-38.285-13.437-44.575-32.041-0.266-0.822-0.521-1.68-0.765-2.514-0.487-1.784-0.88-3.626-1.147-5.502-3.023-21.604-8.016-64.754-8.468-116.454 0.452-51.722 5.444-94.826 8.468-116.465 0.266-1.877 0.66-3.707 1.147-5.491 0.243-0.869 0.498-1.68 0.765-2.525 6.279-18.615 23.84-32.041 44.575-32.041h-3.232c0 0 83.335-12.58 194.171-13.090 110.847 0.521 194.171 13.090 194.171 13.090h-3.232c20.724 0 38.297 13.426 44.564 32.041 0.278 0.846 0.533 1.657 0.753 2.525 0.51 1.784 0.892 3.614 1.17 5.491 3.012 21.639 8.005 64.743 8.456 116.465-0.44 51.699-5.444 94.838-8.456 116.454zM584.828 440.969l-99.286-72.122c-2.074-1.518-4.553-2.294-7.020-2.294-1.842 0-3.718 0.452-5.421 1.297-3.996 2.050-6.522 6.174-6.522 10.669v144.22c0 4.506 2.525 8.618 6.522 10.68 3.985 2.027 8.804 1.645 12.441-0.996l99.286-72.099c3.105-2.259 4.923-5.85 4.923-9.673 0-3.846-1.807-7.425-4.923-9.684z" />
<glyph unicode="twitter" d="M512 925.248c263.153 0 477.248-214.095 477.248-477.248s-214.095-477.248-477.248-477.248c-263.153 0-477.248 214.095-477.248 477.248 0 263.153 214.095 477.248 477.248 477.248zM512 960c-282.776 0-512-229.224-512-512 0-282.765 229.224-512 512-512 282.765 0 512 229.235 512 512 0 282.776-229.235 512-512 512v0zM728.157 577.219c-15.21-7.356-31.381-12.105-48.525-14.306 17.469 11.248 30.871 28.948 37.219 50.159-16.333-10.356-34.416-17.758-53.68-22.079-15.337 17.723-37.335 28.786-61.522 28.786-46.591 0-84.343-40.613-84.343-90.83 0-7.055 0.73-14.028 2.12-20.585-69.967 3.614-132.208 39.907-173.841 94.745-7.228-13.379-11.364-28.948-11.364-45.641 0-31.427 14.862-59.391 37.544-75.446-13.854 0.568-26.863 4.425-38.216 11.294 0-0.371 0-0.846 0-1.239 0-43.915 29.064-80.567 67.65-89.046-7.066-2.062-14.538-3-22.288-3-5.421 0-10.565 0.371-15.777 1.622 10.692-36.211 41.864-62.507 78.771-63.052-28.867-24.477-65.229-38.853-104.754-38.853-6.823 0-13.565 0.405-20.133 1.263 37.312-25.879 81.563-40.961 129.312-40.961 155.133 0 240.008 138.417 240.008 258.404 0 3.834-0.093 7.727-0.278 11.619 16.461 12.951 30.79 28.972 42.096 47.147z" />
<glyph unicode="spotify" d="M512 925.248c263.153 0 477.248-214.095 477.248-477.248s-214.095-477.248-477.248-477.248c-263.153 0-477.248 214.095-477.248 477.248 0 263.153 214.095 477.248 477.248 477.248zM512 960c-282.776 0-512-229.224-512-512 0-282.765 229.224-512 512-512s512 229.235 512 512c0 282.776-229.235 512-512 512v0zM512 693.603c-135.637 0-245.603-109.955-245.603-245.603s109.955-245.592 245.603-245.592c135.648 0 245.615 109.955 245.615 245.603s-109.967 245.592-245.615 245.592zM611.634 332.102c-3.973 0-6.684 1.378-10.402 3.649-35.598 21.523-79.976 32.841-127.088 32.841-26.284 0-52.73-3.359-77.474-8.503-4.020-0.88-9.082-2.444-12.105-2.444-9.325 0-15.546 7.414-15.546 15.441 0 10.321 5.954 15.453 13.356 16.866 30.338 6.916 60.549 10.854 91.93 10.854 53.738 0 101.638-12.325 142.854-37.034 6.14-3.568 9.731-7.228 9.731-16.31 0.023-8.85-7.182-15.36-15.256-15.36zM638.404 397.123c-5.329 0-8.688 2.143-12.302 4.251-39.953 23.712-95.325 39.455-155.955 39.455-31.103 0-57.955-4.356-80.161-10.263-4.784-1.321-7.472-2.734-11.955-2.734-10.565 0-19.183 8.618-19.183 19.264 0 10.437 5.062 17.631 15.279 20.515 27.605 7.576 55.8 13.426 96.842 13.426 64.291 0 126.485-16.009 175.37-45.27 8.19-4.703 11.213-10.657 11.213-19.415-0.012-10.646-8.479-19.229-19.148-19.229zM668.87 472.72c-5.004 0-7.97 1.216-12.661 3.776-44.448 26.655-113.442 41.343-180.166 41.343-33.304 0-67.129-3.383-98.116-11.792-3.568-0.892-8.074-2.687-12.592-2.687-13.101 0-23.156 10.368-23.156 23.469 0 13.345 8.271 20.84 17.202 23.481 35.007 10.31 74.091 15.117 116.57 15.117 72.122 0 147.997-14.839 203.426-47.39 7.472-4.228 12.661-10.611 12.661-22.299 0-13.403-10.762-23.017-23.168-23.017z" />
<glyph unicode="rdio" d="M512 925.248c263.153 0 477.248-214.095 477.248-477.248s-214.095-477.248-477.248-477.248c-263.153 0-477.248 214.095-477.248 477.248 0 263.153 214.095 477.248 477.248 477.248zM512 960c-282.776 0-512-229.224-512-512 0-282.765 229.224-512 512-512 282.765 0 512 229.235 512 512 0 282.776-229.235 512-512 512v0zM782.196 565.334c-59.866-1.738-132.15 45.224-160.16 62.913-2.595 1.633-5.248 3.151-7.935 4.518-2.931 1.633-5.966 3.139-8.989 4.645v-172.81h-0.093c0.104-15.465-4.495-31.786-14.156-47.436l-0.846-1.378c-27.987-45.247-86.88-71.624-142.112-52.974-53.634 18.117-67.963 70.071-39.559 116.002l0.857 1.39c27.952 45.224 86.845 71.624 142.077 52.962 4.263-1.436 8.19-3.139 11.92-5.004v124.979c-19.762 5.352-40.741 8.41-62.843 8.41-127.829 0-222.748-95.672-222.748-213.551v-1.541c0-117.879 94.143-212.021 221.219-212.021 127.818 0 222.748 95.672 222.748 213.551v1.541c0 9.186-0.637 18.198-1.749 27.060 66.585 17.364 94.039 86.266 62.368 88.745z" />
<glyph unicode="facebook" d="M512 925.248c263.153 0 477.248-214.095 477.248-477.248s-214.095-477.248-477.248-477.248-477.248 214.095-477.248 477.248c0 263.153 214.095 477.248 477.248 477.248zM512 960c-282.765 0-512-229.224-512-512 0-282.765 229.235-512 512-512s512 229.235 512 512c0 282.776-229.235 512-512 512v0zM617.715 532.019h-74.786v49.047c0 18.419 12.198 22.716 20.793 22.716 8.584 0 52.777 0 52.777 0v80.972l-72.678 0.29c-80.682 0-99.043-60.399-99.043-99.043v-53.981h-46.66v-83.439h46.66c0-107.094 0-236.116 0-236.116h98.163c0 0 0 130.308 0 236.116h66.214l8.561 83.439z" />
<glyph unicode="Youtube" d="M512 925.248c263.153 0 477.248-214.095 477.248-477.248s-214.095-477.248-477.248-477.248c-263.153 0-477.248 214.095-477.248 477.248 0 263.153 214.095 477.248 477.248 477.248zM512 960c-282.765 0-512-229.224-512-512 0-282.765 229.235-512 512-512 282.765 0 512 229.235 512 512 0 282.776-229.235 512-512 512v0zM749.425 567.952c-0.278 1.877-0.66 3.718-1.17 5.502-0.22 0.834-0.475 1.691-0.753 2.514-6.267 18.604-23.84 32.030-44.564 32.041h3.232c0 0-83.324 12.569-194.171 13.090-110.847-0.521-194.171-13.090-194.171-13.090h3.232c-20.735-0.012-38.285-13.437-44.575-32.041-0.266-0.822-0.521-1.68-0.765-2.514-0.487-1.784-0.88-3.626-1.147-5.502-3.023-21.604-8.016-64.754-8.468-116.454 0.452-51.722 5.444-94.826 8.468-116.465 0.266-1.877 0.66-3.707 1.147-5.491 0.243-0.869 0.498-1.68 0.765-2.525 6.279-18.615 23.84-32.041 44.575-32.041h-3.232c0 0 83.335-12.58 194.171-13.090 110.847 0.521 194.171 13.090 194.171 13.090h-3.232c20.724 0 38.297 13.426 44.564 32.041 0.278 0.846 0.533 1.657 0.753 2.525 0.51 1.784 0.892 3.614 1.17 5.491 3.012 21.639 8.005 64.743 8.456 116.465-0.44 51.699-5.444 94.838-8.456 116.454zM584.828 440.969l-99.286-72.122c-2.074-1.518-4.553-2.294-7.020-2.294-1.842 0-3.718 0.452-5.421 1.297-3.996 2.050-6.522 6.174-6.522 10.669v144.22c0 4.506 2.525 8.618 6.522 10.68 3.985 2.027 8.804 1.645 12.441-0.996l99.286-72.099c3.105-2.259 4.923-5.85 4.923-9.673 0-3.846-1.807-7.425-4.923-9.684z" />
<glyph unicode="YouTube" d="M512 925.248c263.153 0 477.248-214.095 477.248-477.248s-214.095-477.248-477.248-477.248c-263.153 0-477.248 214.095-477.248 477.248 0 263.153 214.095 477.248 477.248 477.248zM512 960c-282.765 0-512-229.224-512-512 0-282.765 229.235-512 512-512 282.765 0 512 229.235 512 512 0 282.776-229.235 512-512 512v0zM749.425 567.952c-0.278 1.877-0.66 3.718-1.17 5.502-0.22 0.834-0.475 1.691-0.753 2.514-6.267 18.604-23.84 32.030-44.564 32.041h3.232c0 0-83.324 12.569-194.171 13.090-110.847-0.521-194.171-13.090-194.171-13.090h3.232c-20.735-0.012-38.285-13.437-44.575-32.041-0.266-0.822-0.521-1.68-0.765-2.514-0.487-1.784-0.88-3.626-1.147-5.502-3.023-21.604-8.016-64.754-8.468-116.454 0.452-51.722 5.444-94.826 8.468-116.465 0.266-1.877 0.66-3.707 1.147-5.491 0.243-0.869 0.498-1.68 0.765-2.525 6.279-18.615 23.84-32.041 44.575-32.041h-3.232c0 0 83.335-12.58 194.171-13.090 110.847 0.521 194.171 13.090 194.171 13.090h-3.232c20.724 0 38.297 13.426 44.564 32.041 0.278 0.846 0.533 1.657 0.753 2.525 0.51 1.784 0.892 3.614 1.17 5.491 3.012 21.639 8.005 64.743 8.456 116.465-0.44 51.699-5.444 94.838-8.456 116.454zM584.828 440.969l-99.286-72.122c-2.074-1.518-4.553-2.294-7.020-2.294-1.842 0-3.718 0.452-5.421 1.297-3.996 2.050-6.522 6.174-6.522 10.669v144.22c0 4.506 2.525 8.618 6.522 10.68 3.985 2.027 8.804 1.645 12.441-0.996l99.286-72.099c3.105-2.259 4.923-5.85 4.923-9.673 0-3.846-1.807-7.425-4.923-9.684z" />
<glyph unicode="YOUTUBE" d="M584.828 460.314l-99.298 72.099c-3.637 2.63-8.456 3.023-12.441 0.996-3.996-2.050-6.522-6.163-6.522-10.68v-144.209c0-4.495 2.525-8.618 6.522-10.669 1.714-0.846 3.579-1.297 5.421-1.297 2.467 0 4.946 0.776 7.020 2.294l99.298 72.122c3.116 2.259 4.923 5.827 4.923 9.673 0 3.823-1.819 7.425-4.923 9.673zM512 960c-282.765 0-512-229.235-512-512s229.235-512 512-512c282.765 0 512 229.235 512 512 0 282.765-229.235 512-512 512zM749.425 335.033c-0.278-1.877-0.66-3.707-1.17-5.491-0.22-0.869-0.475-1.68-0.753-2.525-6.267-18.615-23.84-32.041-44.564-32.041h3.232c0 0-83.324-12.58-194.171-13.090-110.835 0.521-194.171 13.090-194.171 13.090h3.232c-20.735 0-38.285 13.426-44.575 32.041-0.266 0.846-0.521 1.657-0.765 2.525-0.487 1.784-0.88 3.614-1.147 5.491-3.023 21.639-8.016 64.743-8.468 116.465 0.452 51.699 5.444 94.838 8.468 116.454 0.266 1.877 0.66 3.718 1.147 5.502 0.243 0.834 0.498 1.691 0.765 2.514 6.279 18.604 23.84 32.030 44.575 32.041h-3.232c0 0 83.335 12.569 194.171 13.090 110.847-0.51 194.171-13.090 194.171-13.090h-3.232c20.724-0.012 38.297-13.437 44.564-32.041 0.278-0.822 0.533-1.68 0.753-2.514 0.51-1.784 0.892-3.626 1.17-5.502 3.012-21.604 8.005-64.754 8.456-116.454-0.44-51.711-5.444-94.815-8.456-116.465z" />
<glyph unicode="Twitter" d="M512 925.248c263.153 0 477.248-214.095 477.248-477.248s-214.095-477.248-477.248-477.248c-263.153 0-477.248 214.095-477.248 477.248 0 263.153 214.095 477.248 477.248 477.248zM512 960c-282.776 0-512-229.224-512-512 0-282.765 229.224-512 512-512 282.765 0 512 229.235 512 512 0 282.776-229.235 512-512 512v0zM728.157 577.219c-15.21-7.356-31.381-12.105-48.525-14.306 17.469 11.248 30.871 28.948 37.219 50.159-16.333-10.356-34.416-17.758-53.68-22.079-15.337 17.723-37.335 28.786-61.522 28.786-46.591 0-84.343-40.613-84.343-90.83 0-7.055 0.73-14.028 2.12-20.585-69.967 3.614-132.208 39.907-173.841 94.745-7.228-13.379-11.364-28.948-11.364-45.641 0-31.427 14.862-59.391 37.544-75.446-13.854 0.568-26.863 4.425-38.216 11.294 0-0.371 0-0.846 0-1.239 0-43.915 29.064-80.567 67.65-89.046-7.066-2.062-14.538-3-22.288-3-5.421 0-10.565 0.371-15.777 1.622 10.692-36.211 41.864-62.507 78.771-63.052-28.867-24.477-65.229-38.853-104.754-38.853-6.823 0-13.565 0.405-20.133 1.263 37.312-25.879 81.563-40.961 129.312-40.961 155.133 0 240.008 138.417 240.008 258.404 0 3.834-0.093 7.727-0.278 11.619 16.461 12.951 30.79 28.972 42.096 47.147z" />
<glyph unicode="TWITTER" d="M512 960c-282.776 0-512-229.235-512-512s229.224-512 512-512c282.765 0 512 229.235 512 512 0 282.765-229.235 512-512 512zM686.061 530.049c0.185-3.892 0.278-7.773 0.278-11.619 0-119.987-84.887-258.404-240.008-258.404-47.738 0-92 15.082-129.312 40.961 6.58-0.869 13.31-1.263 20.133-1.263 39.525 0 75.887 14.376 104.754 38.853-36.895 0.544-68.079 26.84-78.771 63.052 5.213-1.239 10.356-1.622 15.777-1.622 7.738 0 15.221 0.938 22.288 3-38.586 8.479-67.65 45.131-67.65 89.046 0 0.394 0 0.869 0 1.239 11.352-6.869 24.361-10.727 38.216-11.294-22.67 16.044-37.544 44.019-37.544 75.446 0 16.704 4.135 32.273 11.364 45.641 41.633-54.827 103.873-91.131 173.841-94.745-1.39 6.557-2.12 13.542-2.12 20.585 0 50.217 37.752 90.83 84.343 90.83 24.187 0 46.197-11.051 61.522-28.786 19.264 4.332 37.335 11.735 53.68 22.079-6.348-21.222-19.751-38.922-37.219-50.159 17.144 2.201 33.316 6.95 48.525 14.306-11.306-18.152-25.635-34.173-42.096-47.147z" />
<glyph unicode="Spotify" d="M512 925.248c263.153 0 477.248-214.095 477.248-477.248s-214.095-477.248-477.248-477.248c-263.153 0-477.248 214.095-477.248 477.248 0 263.153 214.095 477.248 477.248 477.248zM512 960c-282.776 0-512-229.224-512-512 0-282.765 229.224-512 512-512s512 229.235 512 512c0 282.776-229.235 512-512 512v0zM512 693.603c-135.637 0-245.603-109.955-245.603-245.603s109.955-245.592 245.603-245.592c135.648 0 245.615 109.955 245.615 245.603s-109.967 245.592-245.615 245.592zM611.634 332.102c-3.973 0-6.684 1.378-10.402 3.649-35.598 21.523-79.976 32.841-127.088 32.841-26.284 0-52.73-3.359-77.474-8.503-4.020-0.88-9.082-2.444-12.105-2.444-9.325 0-15.546 7.414-15.546 15.441 0 10.321 5.954 15.453 13.356 16.866 30.338 6.916 60.549 10.854 91.93 10.854 53.738 0 101.638-12.325 142.854-37.034 6.14-3.568 9.731-7.228 9.731-16.31 0.023-8.85-7.182-15.36-15.256-15.36zM638.404 397.123c-5.329 0-8.688 2.143-12.302 4.251-39.953 23.712-95.325 39.455-155.955 39.455-31.103 0-57.955-4.356-80.161-10.263-4.784-1.321-7.472-2.734-11.955-2.734-10.565 0-19.183 8.618-19.183 19.264 0 10.437 5.062 17.631 15.279 20.515 27.605 7.576 55.8 13.426 96.842 13.426 64.291 0 126.485-16.009 175.37-45.27 8.19-4.703 11.213-10.657 11.213-19.415-0.012-10.646-8.479-19.229-19.148-19.229zM668.87 472.72c-5.004 0-7.97 1.216-12.661 3.776-44.448 26.655-113.442 41.343-180.166 41.343-33.304 0-67.129-3.383-98.116-11.792-3.568-0.892-8.074-2.687-12.592-2.687-13.101 0-23.156 10.368-23.156 23.469 0 13.345 8.271 20.84 17.202 23.481 35.007 10.31 74.091 15.117 116.57 15.117 72.122 0 147.997-14.839 203.426-47.39 7.472-4.228 12.661-10.611 12.661-22.299 0-13.403-10.762-23.017-23.168-23.017z" />
<glyph unicode="SPOTIFY" d="M646.328 435.756c-48.896 29.261-111.090 45.27-175.381 45.27-41.042 0-69.226-5.85-96.842-13.426-10.217-2.884-15.279-10.078-15.279-20.515 0-10.646 8.618-19.253 19.183-19.253 4.483 0 7.159 1.413 11.955 2.734 22.218 5.919 49.058 10.263 80.161 10.263 60.631 0 116.002-15.754 155.967-39.455 3.614-2.108 6.974-4.251 12.302-4.251 10.68 0 19.137 8.595 19.137 19.229 0.012 8.734-3.012 14.688-11.202 19.403zM679.388 518.025c-55.429 32.551-131.304 47.39-203.426 47.39-42.478 0-81.563-4.807-116.57-15.117-8.931-2.641-17.191-10.124-17.191-23.481 0-13.101 10.055-23.469 23.156-23.469 4.518 0 9.024 1.796 12.592 2.687 30.987 8.41 64.812 11.792 98.116 11.792 66.724 0 135.706-14.677 180.166-41.332 4.692-2.56 7.657-3.776 12.661-3.776 12.406 0 23.168 9.615 23.168 23.006-0.023 11.688-5.213 18.071-12.673 22.299zM512 960c-282.765 0-512-229.235-512-512s229.235-512 512-512c282.765 0 512 229.235 512 512 0 282.765-229.235 512-512 512zM511.988 202.397c-135.637 0-245.603 109.955-245.603 245.603s109.967 245.603 245.603 245.603c135.648 0 245.615-109.955 245.615-245.603 0-135.637-109.955-245.603-245.615-245.603zM617.182 363.785c-41.216 24.709-89.116 37.034-142.854 37.034-31.381 0-61.592-3.939-91.93-10.854-7.414-1.413-13.356-6.545-13.356-16.866 0-8.028 6.221-15.441 15.546-15.441 3.023 0 8.086 1.564 12.105 2.444 24.732 5.143 51.19 8.503 77.474 8.503 47.1 0 91.49-11.318 127.088-32.841 3.718-2.27 6.418-3.649 10.402-3.649 8.074 0 15.268 6.51 15.268 15.372-0.012 9.070-3.614 12.719-9.742 16.299z" />
<glyph unicode="Rdio" d="M512 925.248c263.153 0 477.248-214.095 477.248-477.248s-214.095-477.248-477.248-477.248c-263.153 0-477.248 214.095-477.248 477.248 0 263.153 214.095 477.248 477.248 477.248zM512 960c-282.776 0-512-229.224-512-512 0-282.765 229.224-512 512-512 282.765 0 512 229.235 512 512 0 282.776-229.235 512-512 512v0zM782.196 565.334c-59.866-1.738-132.15 45.224-160.16 62.913-2.595 1.633-5.248 3.151-7.935 4.518-2.931 1.633-5.966 3.139-8.989 4.645v-172.81h-0.093c0.104-15.465-4.495-31.786-14.156-47.436l-0.846-1.378c-27.987-45.247-86.88-71.624-142.112-52.974-53.634 18.117-67.963 70.071-39.559 116.002l0.857 1.39c27.952 45.224 86.845 71.624 142.077 52.962 4.263-1.436 8.19-3.139 11.92-5.004v124.979c-19.762 5.352-40.741 8.41-62.843 8.41-127.829 0-222.748-95.672-222.748-213.551v-1.541c0-117.879 94.143-212.021 221.219-212.021 127.818 0 222.748 95.672 222.748 213.551v1.541c0 9.186-0.637 18.198-1.749 27.060 66.585 17.364 94.039 86.266 62.368 88.745z" />
<glyph unicode="RDIO" d="M512 960c-282.776 0-512-229.235-512-512s229.224-512 512-512c282.765 0 512 229.235 512 512 0 282.765-229.235 512-512 512zM719.828 476.601c1.112-8.862 1.749-17.886 1.749-27.060v-1.541c0-117.879-94.931-213.551-222.748-213.551-127.065 0-221.219 94.143-221.219 212.021v1.541c0 117.879 94.907 213.551 222.748 213.551 22.102 0 43.081-3.058 62.843-8.41v-124.979c-3.73 1.865-7.657 3.579-11.92 5.004-55.244 18.662-114.125-7.738-142.077-52.962l-0.857-1.39c-28.404-45.942-14.075-97.885 39.559-116.002 55.232-18.65 114.114 7.727 142.112 52.974l0.846 1.378c9.673 15.65 14.271 31.96 14.156 47.436h0.093v172.798c3.023-1.506 6.058-3.012 8.989-4.645 2.676-1.367 5.329-2.884 7.935-4.518 28.010-17.689 100.294-64.662 160.16-62.913 31.671-2.479 4.217-71.38-62.368-88.733z" />
<glyph unicode="Facebook" d="M512 925.248c263.153 0 477.248-214.095 477.248-477.248s-214.095-477.248-477.248-477.248-477.248 214.095-477.248 477.248c0 263.153 214.095 477.248 477.248 477.248zM512 960c-282.765 0-512-229.224-512-512 0-282.765 229.235-512 512-512s512 229.235 512 512c0 282.776-229.235 512-512 512v0zM617.715 532.019h-74.786v49.047c0 18.419 12.198 22.716 20.793 22.716 8.584 0 52.777 0 52.777 0v80.972l-72.678 0.29c-80.682 0-99.043-60.399-99.043-99.043v-53.981h-46.66v-83.439h46.66c0-107.094 0-236.116 0-236.116h98.163c0 0 0 130.308 0 236.116h66.214l8.561 83.439z" />
<glyph unicode="FACEBOOK" d="M512 960c-282.765 0-512-229.235-512-512s229.235-512 512-512 512 229.235 512 512c0 282.765-229.235 512-512 512zM609.143 448.579h-66.214c0-105.808 0-236.116 0-236.116h-98.163c0 0 0 129.022 0 236.116h-46.66v83.439h46.66v53.981c0 38.656 18.361 99.043 99.043 99.043l72.678-0.29v-80.972c0 0-44.193 0-52.777 0-8.595 0-20.793-4.298-20.793-22.716v-49.047h74.786l-8.561-83.439z" />
</font>
</defs>
</svg>
